<svg xmlns="http://www.w3.org/2000/svg" viewBox="0 0 64 64" width="512px" height="512px"><radialGradient id="mxlZMEbhleJcJYKroWOm6a" cx="32.448" cy="32.697" r="28.862" gradientTransform="matrix(1 0 0 -1 0 66)" gradientUnits="userSpaceOnUse"><stop offset="0" stop-color="#afeeff"/><stop offset=".193" stop-color="#bbf1ff"/><stop offset=".703" stop-color="#d7f8ff"/><stop offset="1" stop-color="#e1faff"/></radialGradient><path fill="url(#mxlZMEbhleJcJYKroWOm6a)" d="M60.5,43H59c-2.21,0-4-1.79-4-4c0-1.1,0.45-2.1,1.17-2.83C56.9,35.45,57.9,35,59,35h-0.21	c2.61,0,4.94-1.91,5.19-4.51C64.26,27.51,61.92,25,59,25h-0.5c-1.38,0-2.5-1.12-2.5-2.5c0-0.69,0.28-1.32,0.73-1.77	C57.18,20.28,57.81,20,58.5,20h2c2.17,0,3.89-2.01,3.42-4.25C63.57,14.12,62.05,13,60.38,13h-7.27c-1,0-1.92-0.69-2.08-1.67	C50.83,10.07,51.79,9,53,9h0.38c1.67,0,3.19-1.12,3.54-2.75C57.39,4.01,55.67,2,53.5,2H11.62C9.95,2,8.43,3.12,8.08,4.75	C7.61,6.99,9.33,9,11.5,9h4.39c1,0,1.92,0.69,2.08,1.67C18.17,11.93,17.21,13,16,13H4.62c-1.67,0-3.19,1.12-3.54,2.75	C0.61,17.99,2.33,20,4.5,20h1.29c3.05,0,5.77,2.19,6.16,5.21C12.42,28.87,9.57,32,6,32H4.62c-1.67,0-3.19,1.12-3.54,2.75	C0.61,36.99,2.33,39,4.5,39h11.39c1,0,1.92,0.69,2.08,1.67C18.17,41.93,17.21,43,16,43H3.5c-2.17,0-3.89,2.01-3.42,4.25	C0.43,48.88,1.95,50,3.62,50h5.71c1.56,0,2.48,0.69,2.64,1.67c0.13,0.8-0.21,2.32-0.78,3.33H6c-1.1,0-2.1,0.45-2.83,1.17	C2.45,56.9,2,57.9,2,59c0,0.09,0,0.17,0.01,0.26C2.14,61.35,3.88,63,6,63h13h30.38c1.67,0,3.19-1.12,3.54-2.75	C53.39,58.01,51.67,56,49.5,56H46c-0.83,0-1.58-0.34-2.12-0.88C43.34,54.58,43,53.83,43,53c0-1.66,1.34-3,3-3h14.38	c1.67,0,3.19-1.12,3.54-2.75C64.39,45.01,62.67,43,60.5,43z"/><linearGradient id="mxlZMEbhleJcJYKroWOm6b" x1="31.013" x2="31.013" y1="27.828" y2="8.505" gradientTransform="scale(1 -1) rotate(-40.002 -83.66 9.002)" gradientUnits="userSpaceOnUse"><stop offset="0" stop-color="#feaa53"/><stop offset=".612" stop-color="#ffcd49"/><stop offset="1" stop-color="#ffde44"/></linearGradient><path fill="url(#mxlZMEbhleJcJYKroWOm6b)" d="M14.669,58.934l-2.254,0.928c-2.244,1.041-4.588-0.926-3.953-3.317l1.08-4.943L14.669,58.934z"/><linearGradient id="mxlZMEbhleJcJYKroWOm6c" x1="30.623" x2="30.623" y1="-1.372" y2="19.641" gradientTransform="scale(1 -1) rotate(-40.002 -83.66 9.002)" gradientUnits="userSpaceOnUse"><stop offset="0" stop-color="#fec58a"/><stop offset=".612" stop-color="#ffdd83"/><stop offset="1" stop-color="#ffe97f"/></linearGradient><polygon fill="url(#mxlZMEbhleJcJYKroWOm6c)" points="19.41,56.986 14.669,58.934 9.541,51.603 10.99,44.96"/><linearGradient id="mxlZMEbhleJcJYKroWOm6d" x1="30.238" x2="30.238" y1="43.04" y2="12.237" gradientTransform="scale(1 -1) rotate(-40.002 -83.66 9.002)" gradientUnits="userSpaceOnUse"><stop offset="0" stop-color="#feaa53"/><stop offset=".612" stop-color="#ffcd49"/><stop offset="1" stop-color="#ffde44"/></linearGradient><polygon fill="url(#mxlZMEbhleJcJYKroWOm6d)" points="24.159,55.044 19.41,56.986 10.99,44.96 12.439,38.317"/><linearGradient id="mxlZMEbhleJcJYKroWOm6e" x1="29.847" x2="29.847" y1=".035" y2="28.533" gradientTransform="scale(1 -1) rotate(-40.002 -83.66 9.002)" gradientUnits="userSpaceOnUse"><stop offset="0" stop-color="#fec58a"/><stop offset=".612" stop-color="#ffdd83"/><stop offset="1" stop-color="#ffe97f"/></linearGradient><polygon fill="url(#mxlZMEbhleJcJYKroWOm6e)" points="28.9,53.096 24.159,55.044 12.439,38.317 13.894,31.667"/><linearGradient id="mxlZMEbhleJcJYKroWOm6f" x1="30.241" x2="30.241" y1="56.637" y2="18.244" gradientTransform="scale(1 -1) rotate(-40.002 -83.66 9.002)" gradientUnits="userSpaceOnUse"><stop offset="0" stop-color="#feaa53"/><stop offset=".612" stop-color="#ffcd49"/><stop offset="1" stop-color="#ffde44"/></linearGradient><path fill="url(#mxlZMEbhleJcJYKroWOm6f)" d="M33.642,51.148L28.9,53.096L13.894,31.667l0.598-2.735c0.294-1.098,1.122-1.865,2.083-2.155	L33.642,51.148z"/><linearGradient id="mxlZMEbhleJcJYKroWOm6g" x1="31.682" x2="31.682" y1="15.082" y2="37.759" gradientTransform="scale(1 -1) rotate(-40.002 -83.66 9.002)" gradientUnits="userSpaceOnUse"><stop offset="0" stop-color="#fec58a"/><stop offset=".612" stop-color="#ffdd83"/><stop offset="1" stop-color="#ffe97f"/></linearGradient><path fill="url(#mxlZMEbhleJcJYKroWOm6g)" d="M38.377,49.208l-4.735,1.94L16.575,26.776c0.886-0.262,1.877-0.122,2.651,0.528l9.254,7.765	L38.377,49.208z"/><linearGradient id="mxlZMEbhleJcJYKroWOm6h" x1="39.099" x2="39.099" y1="51.203" y2="37.182" gradientTransform="scale(1 -1) rotate(-40.002 -83.66 9.002)" gradientUnits="userSpaceOnUse"><stop offset="0" stop-color="#feaa53"/><stop offset=".612" stop-color="#ffcd49"/><stop offset="1" stop-color="#ffde44"/></linearGradient><path fill="url(#mxlZMEbhleJcJYKroWOm6h)" d="M38.562,49.128l-0.185,0.08l-9.897-14.14l10.863,9.115	C40.967,45.546,40.547,48.209,38.562,49.128z"/><linearGradient id="mxlZMEbhleJcJYKroWOm6i" x1="27.228" x2="27.228" y1="18.745" y2="84.901" gradientTransform="matrix(1 0 0 -1 0 66)" gradientUnits="userSpaceOnUse"><stop offset="0" stop-color="#ff735d"/><stop offset=".137" stop-color="#fe746b"/><stop offset=".486" stop-color="#fc758a"/><stop offset=".783" stop-color="#fa769d"/><stop offset=".989" stop-color="#fa76a4"/><stop offset="1" stop-color="#fa76a4"/></linearGradient><path fill="url(#mxlZMEbhleJcJYKroWOm6i)" d="M24.293,26.293c0.667-0.979,1.237-2.249,1.556-3.464c0.33-1.234,0.491-2.489,0.446-3.727	c-0.073-1.239-0.228-2.449-0.624-3.617c-0.134-0.587-0.436-1.154-0.634-1.72c-0.252-0.561-0.558-1.106-0.823-1.651l-0.105-0.215	c-0.732-1.505-0.105-3.318,1.4-4.05s3.318-0.105,4.05,1.4c0.098,0.202,0.175,0.426,0.226,0.636c0.186,0.797,0.395,1.574,0.541,2.37	c0.096,0.818,0.276,1.597,0.28,2.424c0.133,1.619-0.033,3.268-0.333,4.844c-0.326,1.583-0.906,3.092-1.66,4.47	c-0.775,1.392-1.663,2.598-2.907,3.713c-0.41,0.368-1.04,0.333-1.408-0.077c-0.313-0.348-0.335-0.856-0.082-1.227L24.293,26.293z"/><linearGradient id="mxlZMEbhleJcJYKroWOm6j" x1="46.761" x2="46.761" y1="7" y2="79.05" gradientTransform="matrix(1 0 0 -1 0 66)" gradientUnits="userSpaceOnUse"><stop offset="0" stop-color="#6dc8ef"/><stop offset="1" stop-color="#9ee6fc"/></linearGradient><path fill="url(#mxlZMEbhleJcJYKroWOm6j)" d="M37.096,37.572c0.648-1.59,1.471-2.936,2.516-4.236c1.034-1.287,2.284-2.445,3.715-3.393	c1.425-0.945,3.026-1.729,4.722-2.179c0.844-0.284,1.707-0.395,2.58-0.551c0.872-0.132,1.74-0.14,2.626-0.203	c1.668-0.119,3.117,1.136,3.236,2.804s-1.136,3.117-2.804,3.236c-0.203,0.015-0.402,0.009-0.596-0.016l-0.349-0.047	c-0.616-0.081-1.252-0.236-1.879-0.28c-0.623-0.022-1.27-0.103-1.892-0.03c-1.273,0.033-2.524,0.331-3.748,0.787	c-1.225,0.457-2.406,1.128-3.482,1.983c-1.07,0.832-2.086,1.909-2.838,2.979l-0.067,0.096c-0.317,0.451-0.94,0.559-1.391,0.242	C37.058,38.492,36.924,37.993,37.096,37.572z"/><linearGradient id="mxlZMEbhleJcJYKroWOm6k" x1="38.998" x2="38.998" y1="1.55" y2="79.756" gradientTransform="matrix(1 0 0 -1 0 66)" gradientUnits="userSpaceOnUse"><stop offset="0" stop-color="#feaa53"/><stop offset=".612" stop-color="#ffcd49"/><stop offset="1" stop-color="#ffde44"/></linearGradient><path fill="url(#mxlZMEbhleJcJYKroWOm6k)" d="M47.523,13.019c-0.369-0.929-0.907-1.817-0.823-2.802c0.106-1.242,1.185-2.226,1.291-3.468	c0.089-1.041-0.588-2.067-1.519-2.493C45.54,3.83,44.418,3.96,43.527,4.47s-1.562,1.365-1.996,2.31	c-1.009,2.198-0.73,4.957,0.698,6.896c-1.023-0.425-2.143-0.647-3.238-0.499c-1.094,0.148-2.158,0.688-2.834,1.582	c-0.885,1.17-0.749,2.575-0.434,3.923c0.301,1.289,0.784,2.556,0.785,3.881c0.002,1.465-0.595,2.877-1.428,4.067	c-0.852,1.217-4.209,4.939-4.858,5.739c-0.312,0.384-0.301,0.959,0.046,1.327c0.372,0.394,0.986,0.405,1.371,0.024	c1.407-1.393,2.848-2.757,4.222-4.184c0.862-0.895,1.847-1.568,2.557-2.641s1.19-2.308,1.367-3.592	c0.134-0.967,0.103-1.95-0.008-2.918c-0.111-0.964-0.367-1.908-0.487-2.865c0.092,0.116,1.285,0.573,1.763,0.753	c0.731,0.288,1.507,0.463,2.292,0.47c1.476,0.012,3.047-0.598,3.886-1.895c0.595-0.92,0.785-2.105,0.509-3.172	C47.686,13.454,47.609,13.235,47.523,13.019z"/><linearGradient id="mxlZMEbhleJcJYKroWOm6l" x1="18" x2="18" y1="36.681" y2="42.651" gradientTransform="matrix(1 0 0 -1 0 66)" gradientUnits="userSpaceOnUse"><stop offset="0" stop-color="#feaa53"/><stop offset=".612" stop-color="#ffcd49"/><stop offset="1" stop-color="#ffde44"/></linearGradient><circle cx="18" cy="20" r="3" fill="url(#mxlZMEbhleJcJYKroWOm6l)"/><linearGradient id="mxlZMEbhleJcJYKroWOm6m" x1="50.5" x2="50.5" y1="32.787" y2="60.858" gradientTransform="matrix(1 0 0 -1 0 66)" gradientUnits="userSpaceOnUse"><stop offset="0" stop-color="#ff735d"/><stop offset=".137" stop-color="#fe746b"/><stop offset=".486" stop-color="#fc758a"/><stop offset=".783" stop-color="#fa769d"/><stop offset=".989" stop-color="#fa76a4"/><stop offset="1" stop-color="#fa76a4"/></linearGradient><circle cx="50.5" cy="22.5" r="2.5" fill="url(#mxlZMEbhleJcJYKroWOm6m)"/><linearGradient id="mxlZMEbhleJcJYKroWOm6n" x1="48" x2="48" y1="28.638" y2="37.189" gradientTransform="matrix(1 0 0 -1 0 66)" gradientUnits="userSpaceOnUse"><stop offset="0" stop-color="#feaa53"/><stop offset=".612" stop-color="#ffcd49"/><stop offset="1" stop-color="#ffde44"/></linearGradient><circle cx="48" cy="42" r="3" fill="url(#mxlZMEbhleJcJYKroWOm6n)"/><linearGradient id="mxlZMEbhleJcJYKroWOm6o" x1="35" x2="35" y1="49.511" y2="68.317" gradientTransform="matrix(1 0 0 -1 0 66)" gradientUnits="userSpaceOnUse"><stop offset="0" stop-color="#6dc8ef"/><stop offset="1" stop-color="#9ee6fc"/></linearGradient><circle cx="35" cy="8" r="2" fill="url(#mxlZMEbhleJcJYKroWOm6o)"/></svg>